<svg viewBox="0 0 24 24" fill="none" xmlns="http://www.w3.org/2000/svg">
<g id="Who icon">
<g id="Shape=Family">
<path id="Vector" d="M19.4869 5.61668C19.1202 4.61678 18.0249 3.51265 16.5914 3.3633C15.1574 3.2144 14.5153 4.14544 14.5153 4.14544C12.1781 5.16954 12.6178 10.002 12.6178 10.002C12.6178 10.002 12.83 10.8307 16.275 10.8307C18.3753 10.8307 19.2919 10.5227 19.6879 10.2821C19.8693 10.1718 19.9833 9.97735 19.988 9.76518C20.0308 7.938 19.7604 6.36114 19.4873 5.61622L19.4869 5.61668ZM18.9699 8.41352C18.6461 9.67073 17.548 10.5962 16.2433 10.5962C14.8549 10.5962 13.7015 9.54882 13.4642 8.16831C13.4102 7.85238 13.4851 7.52529 13.6768 7.26845C13.8071 7.0935 13.9234 7.00463 13.9234 7.00463C14.6172 6.38626 14.8349 5.53339 14.8963 5.19839C14.9061 5.14441 14.974 5.1258 15.0099 5.16768C15.2732 5.4743 16.0958 6.31182 17.361 6.50026C18.5656 6.6794 19.1314 7.47969 18.9699 8.41352Z" fill="#F55547"/>
<path id="Vector 1364" d="M16.2097 10.1291C19.6708 10.1291 20.5361 12.7015 20.5361 13.637V20.6528H11.8833V13.637C11.8833 12.5846 12.7486 10.1291 16.2097 10.1291Z" fill="#F86F63"/>
<path id="Vector 1365" d="M7.79125 10.1291C11.2524 10.1291 12.1177 12.7015 12.1177 13.637V20.6528H3.46484V13.637C3.46484 12.5846 4.33013 10.1291 7.79125 10.1291Z" fill="#F86F63"/>
<path id="Vector_2" d="M17.3606 6.50028C16.0955 6.3123 15.2728 5.47432 15.0095 5.16769C14.9736 5.12582 14.9062 5.14396 14.8959 5.1984C14.8345 5.53341 14.6168 6.38675 13.923 7.00465C13.923 7.00465 13.8067 7.09352 13.6764 7.26846C13.4852 7.5253 13.4098 7.85287 13.4638 8.16833C13.7006 9.54884 14.8545 10.5962 16.243 10.5962C17.5481 10.5962 18.6457 9.67074 18.9695 8.41354C19.1305 7.4797 18.5652 6.67895 17.3606 6.50028Z" fill="#FDE2E0"/>
<path id="Vector_3" d="M4.9017 7.55615L4.90176 7.55613C4.93139 7.31191 4.86359 6.86622 4.35548 7.03351C4.349 6.87875 4.35576 6.76405 4.37105 6.60472C4.52028 5.03928 5.78734 3.76871 7.36955 3.60067C9.42725 3.38227 11.1643 5.01135 11.1346 7.00626C11.1337 7.0058 11.1323 7.00626 11.1313 7.00626C11.0526 6.98703 10.9668 7.09097 10.8644 7.14774C10.8255 7.16422 10.7861 7.17613 10.7518 7.17842C10.4547 7.19811 10.1284 7.14454 9.79477 7.04701C8.38311 6.63356 6.80856 5.68573 6.80856 5.68573L5.87312 7.20582L4.90176 7.55613C4.90174 7.55629 4.90172 7.55645 4.9017 7.55661V7.55615Z" fill="#F55547"/>
<path id="Vector 1362" d="M5.05375 7.43554C5.05375 7.18497 4.51246 6.78307 4.35247 7.01793C3.81766 7.80303 4.53698 8.41274 5.17108 8.72594C5.40494 9.66138 6.45727 10.5968 7.86043 10.5968C9.26359 10.5968 10.316 9.42752 10.316 8.72594C11.7191 7.90743 11.4514 7.0764 11.1344 6.97199C10.8808 6.88847 10.655 7.05273 10.655 7.12233C9.64041 7.20585 7.69583 6.04351 6.85037 5.4519L5.05375 7.43554Z" fill="#FDE2E0"/>
<path id="Vector 1372" d="M6.62124 18.1972L5.80273 17.7295L6.38738 16.911C6.1925 16.6381 5.80273 15.882 5.80273 15.0401C5.80273 13.9877 6.8551 12.8184 8.37519 12.8184C9.89528 12.8184 10.7138 13.7539 10.9477 15.0401C11.1347 16.0691 10.6358 16.7161 10.363 16.911L11.1815 17.7295L10.4799 18.3141L9.42756 17.1448H6.97203L6.62124 18.1972Z" fill="#F55547"/>
<path id="Vector 1373" d="M8.37566 17.9634C6.31769 17.9634 5.64729 19.7563 5.56934 20.6528H11.182C11.104 19.7173 10.4336 17.9634 8.37566 17.9634Z" fill="#F55547"/>
<path id="Vector 1371" d="M5.80366 15.5078C6.08429 15.5078 6.2324 15.7417 6.27138 15.8586C6.83262 15.7651 7.90842 14.6893 8.37614 13.9877C8.96079 14.6893 9.89623 15.6248 10.364 15.6248C10.8317 15.6248 11.1825 14.9858 11.4163 15.8586C11.6034 16.5568 10.8707 16.9291 10.4809 17.0279C10.4029 17.4956 9.89623 18.4311 8.49307 18.4311C7.08992 18.4311 6.50527 17.4956 6.38834 17.0279C6.31037 17.0279 6.0609 16.9578 5.68673 16.6771C5.21901 16.3263 5.45287 15.5078 5.80366 15.5078Z" fill="#FDE2E0"/>
<path id="Vector 1376" d="M15.7416 17.8465C13.5979 17.8465 12.8996 19.7174 12.8184 20.6528H18.6649C18.5837 19.6767 17.8853 17.8465 15.7416 17.8465Z" fill="#F55547"/>
<path id="Vector 1375" d="M15.7415 18.3142C14.7125 18.3142 13.9096 17.3787 13.6368 16.911C12.3272 16.2562 12.7793 15.6248 13.169 15.3909L14.3383 13.8708L16.9108 13.9878L17.7293 15.3909C17.9576 15.1961 18.4642 14.9934 18.6648 15.7417C18.8653 16.4901 18.2806 16.8331 17.9632 16.911C17.6514 17.3787 16.7705 18.3142 15.7415 18.3142Z" fill="#FDE2E0"/>
<path id="Vector 1374" d="M14.6895 14.4555C14.596 15.0168 13.6372 15.313 13.1694 15.391C13.1694 14.4945 13.6839 12.7016 15.7419 12.7016C17.7999 12.7016 18.3144 14.4945 18.3144 15.391C17.6595 15.5781 16.9502 14.8453 16.6773 14.4555C16.5994 14.6894 16.3032 15.1571 15.7419 15.1571C15.1806 15.1571 14.8065 14.6894 14.6895 14.4555Z" fill="#F55547"/>
</g>
</g>
</svg>
