<svg viewBox="0 0 24 24" fill="none" xmlns="http://www.w3.org/2000/svg">
<path d="M12 3C9.81196 3 7.71354 3.86919 6.16637 5.41637C4.61919 6.96354 3.75 9.06196 3.75 11.25C3.75 11.4489 3.82902 11.6397 3.96967 11.7803C4.11032 11.921 4.30109 12 4.5 12H19.5C19.6989 12 19.8897 11.921 20.0303 11.7803C20.171 11.6397 20.25 11.4489 20.25 11.25C20.25 9.06196 19.3808 6.96354 17.8336 5.41637C16.2865 3.86919 14.188 3 12 3Z" fill="#FDE2E0"/>
<path d="M9.75 7.5H9C8.80109 7.5 8.61032 7.42098 8.46967 7.28033C8.32902 7.13968 8.25 6.94891 8.25 6.75C8.25 6.55109 8.32902 6.36032 8.46967 6.21967C8.61032 6.07902 8.80109 6 9 6H9.75C9.94891 6 10.1397 6.07902 10.2803 6.21967C10.421 6.36032 10.5 6.55109 10.5 6.75C10.5 6.94891 10.421 7.13968 10.2803 7.28033C10.1397 7.42098 9.94891 7.5 9.75 7.5Z" fill="#F55547"/>
<path d="M15 7.5H14.25C14.0511 7.5 13.8603 7.42098 13.7197 7.28033C13.579 7.13968 13.5 6.94891 13.5 6.75C13.5 6.55109 13.579 6.36032 13.7197 6.21967C13.8603 6.07902 14.0511 6 14.25 6H15C15.1989 6 15.3897 6.07902 15.5303 6.21967C15.671 6.36032 15.75 6.55109 15.75 6.75C15.75 6.94891 15.671 7.13968 15.5303 7.28033C15.3897 7.42098 15.1989 7.5 15 7.5Z" fill="#F55547"/>
<path d="M7.5 9.75H6.75C6.55109 9.75 6.36032 9.67098 6.21967 9.53033C6.07902 9.38968 6 9.19891 6 9C6 8.80109 6.07902 8.61032 6.21967 8.46967C6.36032 8.32902 6.55109 8.25 6.75 8.25H7.5C7.69891 8.25 7.88968 8.32902 8.03033 8.46967C8.17098 8.61032 8.25 8.80109 8.25 9C8.25 9.19891 8.17098 9.38968 8.03033 9.53033C7.88968 9.67098 7.69891 9.75 7.5 9.75Z" fill="#F55547"/>
<path d="M10.5 9.75H9.75C9.55109 9.75 9.36032 9.67098 9.21967 9.53033C9.07902 9.38968 9 9.19891 9 9C9 8.80109 9.07902 8.61032 9.21967 8.46967C9.36032 8.32902 9.55109 8.25 9.75 8.25H10.5C10.6989 8.25 10.8897 8.32902 11.0303 8.46967C11.171 8.61032 11.25 8.80109 11.25 9C11.25 9.19891 11.171 9.38968 11.0303 9.53033C10.8897 9.67098 10.6989 9.75 10.5 9.75Z" fill="#F55547"/>
<path d="M14.25 9.75H13.5C13.3011 9.75 13.1103 9.67098 12.9697 9.53033C12.829 9.38968 12.75 9.19891 12.75 9C12.75 8.80109 12.829 8.61032 12.9697 8.46967C13.1103 8.32902 13.3011 8.25 13.5 8.25H14.25C14.4489 8.25 14.6397 8.32902 14.7803 8.46967C14.921 8.61032 15 8.80109 15 9C15 9.19891 14.921 9.38968 14.7803 9.53033C14.6397 9.67098 14.4489 9.75 14.25 9.75Z" fill="#F55547"/>
<path d="M17.25 9.75H16.5C16.3011 9.75 16.1103 9.67098 15.9697 9.53033C15.829 9.38968 15.75 9.19891 15.75 9C15.75 8.80109 15.829 8.61032 15.9697 8.46967C16.1103 8.32902 16.3011 8.25 16.5 8.25H17.25C17.4489 8.25 17.6397 8.32902 17.7803 8.46967C17.921 8.61032 18 8.80109 18 9C18 9.19891 17.921 9.38968 17.7803 9.53033C17.6397 9.67098 17.4489 9.75 17.25 9.75Z" fill="#F55547"/>
<path d="M20.4825 14.25H14.25C14.0511 14.25 13.8603 14.171 13.7197 14.0303C13.579 13.8897 13.5 13.6989 13.5 13.5C13.5 13.3011 13.579 13.1103 13.7197 12.9697C13.8603 12.829 14.0511 12.75 14.25 12.75H20.8725C20.9568 12.2544 20.9995 11.7527 21 11.25C21 11.0511 20.921 10.8603 20.7803 10.7197C20.6397 10.579 20.4489 10.5 20.25 10.5H3.75C3.55109 10.5 3.36032 10.579 3.21967 10.7197C3.07902 10.8603 3 11.0511 3 11.25C3.00101 13.0031 3.51399 14.7177 4.47596 16.1833C5.43793 17.6489 6.80699 18.8017 8.415 19.5H8.25C8.05109 19.5 7.86032 19.579 7.71967 19.7197C7.57902 19.8603 7.5 20.0511 7.5 20.25C7.5 20.4489 7.57902 20.6397 7.71967 20.7803C7.86032 20.921 8.05109 21 8.25 21H15.75C15.9489 21 16.1397 20.921 16.2803 20.7803C16.421 20.6397 16.5 20.4489 16.5 20.25C16.5 20.0511 16.421 19.8603 16.2803 19.7197C16.1397 19.579 15.9489 19.5 15.75 19.5H15.585C16.7162 19.0052 17.7342 18.2841 18.5765 17.3813C19.4187 16.4784 20.0674 15.4128 20.4825 14.25Z" fill="#F55547"/>
</svg>
