<svg viewBox="0 0 24 24" fill="none" xmlns="http://www.w3.org/2000/svg">
<path d="M7.46884 3.80546C7.20294 4.16001 8.466 5.72592 9.13078 6.46456C11.1693 6.90773 13.6734 6.64921 14.6707 6.46456C15.3724 5.79978 16.7315 4.33729 16.5542 3.80546C16.3326 3.14069 15.4462 3.36226 14.1167 3.36226C12.7872 3.36226 12.344 2.3651 11.0144 3.02988C9.68488 3.69465 9.13078 3.25149 8.68772 3.25149C8.24467 3.25149 7.80123 3.36228 7.46884 3.80546Z" fill="#F55547"/>
<path d="M20.6538 13.8878C21.7618 15.9929 20.543 18.9844 18.6595 19.9816C17.1429 20.7845 15.6981 21.2282 12.0117 21.1971C8.32531 21.2282 6.8573 20.7845 5.34072 19.9816C3.4572 18.9844 2.23845 15.9929 3.34641 13.8878C4.45436 11.7827 7.11346 9.34521 9.21857 7.35089H12.0117H14.7817C16.8868 9.34521 19.5459 11.7827 20.6538 13.8878Z" fill="#F55547"/>
<path d="M11.4963 17.0567V15.0326C10.6377 14.8523 10.0069 14.5801 9.60392 14.2162C9.2053 13.8491 9.00599 13.4047 9.00599 12.883C9.00599 12.3548 9.23159 11.912 9.68277 11.5545C10.1383 11.1939 10.7428 10.9861 11.4963 10.9314V10.4532H12.449V10.9314C13.1455 10.9926 13.6997 11.1681 14.1114 11.4579C14.5232 11.7446 14.786 12.1294 14.8999 12.6125L13.2375 12.7719C13.1368 12.3919 12.8739 12.1342 12.449 11.999V13.8878C13.5003 14.0971 14.2165 14.3692 14.5977 14.7041C14.9788 15.0358 15.1693 15.4625 15.1693 15.9843C15.1693 16.5672 14.9284 17.0583 14.4465 17.4576C13.9691 17.8569 13.3032 18.1017 12.449 18.1919V19.0952H11.4963V18.216C10.7385 18.1484 10.123 17.9407 9.64992 17.5929C9.17683 17.2451 8.87458 16.7539 8.74316 16.1195L10.4581 15.9843C10.5282 16.2419 10.6596 16.4641 10.8524 16.6509C11.0451 16.8377 11.2597 16.9729 11.4963 17.0567ZM11.4963 11.9845C11.2378 12.0489 11.032 12.1584 10.8786 12.313C10.7253 12.4675 10.6487 12.6382 10.6487 12.825C10.6487 12.9957 10.7188 13.1551 10.8589 13.3032C10.9991 13.4482 11.2116 13.5657 11.4963 13.6559V11.9845ZM12.449 17.1243C12.7776 17.0792 13.0448 16.9681 13.2507 16.791C13.4565 16.6106 13.5595 16.3997 13.5595 16.1582C13.5595 15.9424 13.4719 15.7572 13.2967 15.6026C13.1258 15.4448 12.8433 15.3241 12.449 15.2403V17.1243Z" fill="#FDE2E0"/>
<path d="M14.8923 7.46167C13.5628 8.01564 9.79573 7.68326 9.24176 7.57246C8.57695 7.46167 8.57699 6.46451 9.24176 6.46451C11.7901 6.90769 14.1168 6.46451 14.6707 6.46451C15.2247 6.46451 15.5571 7.18468 14.8923 7.46167Z" fill="#FDE2E0"/>
</svg>
