<svg width="74" height="20" viewBox="0 0 74 20" fill="none" xmlns="http://www.w3.org/2000/svg">
<path d="M1.05438 10.0659C1.67196 4.8937 5.6219 2.7 7.51967 2.24969C10.2537 1.6707 16.1465 1.7286 17.8448 6.59204C19.9677 12.6713 17.5553 15.4697 12.7305 17.3997C7.90565 19.3296 0.282406 16.5312 1.05438 10.0659Z" fill="#E2011F"/>
<path d="M3.65932 13.7328C2.73295 12.4205 4.36696 12.993 5.29976 13.4433C6.84371 13.7971 10.5878 14.1767 13.2125 12.8643C16.4934 11.2239 16.9759 9.58345 16.9759 11.8994C16.9759 14.2153 13.7915 16.2417 10.3176 16.4347C6.84372 16.6277 4.81728 15.3733 3.65932 13.7328Z" fill="#CA1526"/>
<path d="M6.96564 5.59141C6.81124 4.89663 6.12933 4.8516 5.80768 4.91593C4.64972 5.10892 4.55322 6.45988 5.51819 6.74937C6.48316 7.03886 7.15863 6.45988 6.96564 5.59141Z" fill="white"/>
<path d="M12.0973 7.40422C11.4797 8.40779 11.1966 9.88097 11.1323 10.4921C10.0708 10.4921 8.1409 8.94817 8.43039 9.52715C9.39536 11.0711 10.2638 10.6851 10.2638 11.1676C10.2638 11.6501 8.91288 11.3606 7.65842 11.5536C6.40396 11.7466 9.58835 12.615 10.2638 12.4221C10.9393 12.2291 11.2288 12.4221 11.1323 12.615C11.0358 12.808 10.5533 15.124 12.0973 15.2205C13.6412 15.317 12.1938 14.931 12.1938 13.6765C12.1938 12.4221 12.3868 12.5185 13.1587 12.808C15.2817 13.58 16.1501 13.0975 15.2817 12.9045C14.4132 12.7115 13.3517 12.0361 13.9307 12.0361C15.0887 12.0361 15.4747 11.9396 16.1501 11.1676C16.8256 10.3956 16.7291 10.1061 15.2817 10.6851C13.8342 11.2641 13.9307 10.9746 14.2202 10.4921C14.5097 10.0096 14.9922 8.0797 14.6062 7.9832C14.2202 7.8867 13.5447 10.2026 12.8692 10.2026C11.4218 10.2991 12.8692 6.14976 12.0973 7.40422Z" fill="#017733"/>
<path d="M28.752 16.896C27.376 17.072 26.224 16.432 26.224 15.024C26.224 13.792 27.12 12.816 28.4 13.152C29.632 13.472 30.464 13.552 31.312 13.76C32.016 13.936 32.224 13.76 32.112 12.976C32.048 12.528 32.064 12.208 32.144 11.888C32.208 11.584 32.112 11.536 31.824 11.44C31.232 11.248 30.576 11.264 30.192 11.472C29.008 12.096 26.624 11.472 27.44 8.624C27.68 7.76 27.6 6.96 27.248 6.224C26.512 4.608 27.632 2.672 29.664 3.2C30.32 3.36 30.704 3.328 31.072 3.184C31.424 3.04 31.744 2.96 32.32 2.976C33.184 3.008 33.92 3.632 33.92 4.672C33.92 5.776 33.264 6.432 32.048 6.24C30.768 6.032 30.48 6.064 30.48 6.944C30.48 8.4 30.656 8.8 31.856 8.352C32.8 7.984 33.76 8.528 33.76 9.712C33.76 9.936 34.24 10 34.24 9.584C34.24 9.328 34.32 8.848 34.464 8.416C34.736 7.616 34.688 6.96 34.4 6.224C33.76 4.56 34.816 2.672 36.784 3.2C37.408 3.36 37.792 3.328 38.144 3.184C38.48 3.04 38.8 2.96 39.296 2.976C40.16 3.008 40.88 3.632 40.864 4.672C40.848 5.776 40.176 6.464 38.976 6.24C37.808 6 37.52 6.032 37.488 6.912C37.424 8.368 37.584 8.768 38.752 8.352C39.776 7.984 40.928 8.592 40.912 9.776C40.896 10.96 40.464 11.504 39.52 11.52C38.88 11.536 38.56 11.44 38.224 11.312C37.84 11.168 37.424 11.2 37.024 11.376C36.64 11.536 36.32 11.584 35.952 11.536C35.824 11.52 35.744 11.712 35.792 12C35.84 12.336 35.84 12.8 35.776 13.152C35.648 13.904 35.952 13.904 36.464 13.776C37.2 13.6 38.24 13.488 39.648 13.168C41.024 12.848 41.776 13.984 41.776 15.056C41.776 16.544 40.544 17.296 38.176 16.896C34.912 16.336 32.464 16.416 28.752 16.896ZM50.368 10.256C49.696 10.256 49.232 10.096 48.64 9.968C48 9.808 47.328 9.808 46.688 9.968C46.032 10.128 45.52 10.208 44.576 10.208C43.344 10.192 42.816 9.6 42.816 8.48C42.816 7.36 43.424 7.168 43.424 6.256C43.424 5.616 42.928 5.024 42.928 4.24C42.928 3.072 43.616 2.48 44.656 2.48C45.68 2.48 46.448 2.832 47.408 2.832C49.136 2.832 49.12 2.448 50.288 2.448C51.52 2.448 52.32 2.928 52.16 4.096C52.096 4.528 52.128 4.88 52.224 5.2C52.48 6.224 52.464 6.48 52.144 7.28C51.984 7.648 51.92 8.016 51.936 8.576C51.952 9.664 51.28 10.256 50.368 10.256ZM46.88 7.328C47.36 7.376 48.176 7.376 48.528 7.312C48.976 7.216 49.104 6.96 49.104 6.272C49.104 5.712 48.88 5.456 48.432 5.392C47.776 5.312 47.248 5.344 46.864 5.456C46.448 5.552 46.272 5.872 46.272 6.448C46.272 7.12 46.464 7.28 46.88 7.328ZM54.448 12.496C53.376 12.496 52.72 11.904 52.656 10.768C52.624 10.32 52.72 9.632 52.912 8.88C53.216 7.68 53.248 6.88 53.008 5.76C52.864 5.04 52.8 4.56 52.832 3.936C52.864 3.104 53.36 2.256 54.704 2.256C56.032 2.256 56.592 2.912 56.608 3.792C56.624 4.56 56.56 5.056 56.448 5.408C56.352 5.728 56.464 5.808 56.864 5.776C57.392 5.76 57.968 6.192 57.968 7.312C57.968 8.464 57.424 9.072 56.608 8.976C56.304 8.944 56.224 9.088 56.304 9.36C56.48 9.856 56.592 10.512 56.464 11.184C56.32 11.888 55.824 12.496 54.448 12.496ZM44.8 16.992C43.904 17.024 43.024 16.48 42.912 15.52C42.8 14.544 43.408 13.856 44.352 13.696C45.296 13.536 46.304 13.488 47.232 13.312C47.92 13.2 48.128 13.008 48.096 12.432C48.032 11.344 48.624 10.768 50.064 10.768C51.504 10.768 52.112 11.616 51.984 12.464C51.888 12.96 52.096 13.152 52.704 13.184C54.496 13.264 55.424 13.488 56.176 13.84C57.216 14.304 57.504 15.408 57.056 16.256C56.608 17.088 55.648 17.136 54.496 16.944C53.776 16.8 52.72 16.368 51.68 15.92C51.152 15.68 50.624 15.6 50.096 15.6C49.424 15.6 48.88 15.632 48 16.064C47.008 16.576 45.952 16.976 44.8 16.992ZM60.752 16.896C59.376 17.072 58.224 16.432 58.224 15.024C58.224 13.792 59.12 12.816 60.4 13.152C61.632 13.472 62.464 13.552 63.312 13.76C64.016 13.936 64.224 13.76 64.112 12.976C64.048 12.528 64.064 12.208 64.144 11.888C64.208 11.584 64.112 11.536 63.824 11.44C63.232 11.248 62.576 11.264 62.192 11.472C61.008 12.096 58.624 11.472 59.44 8.624C59.68 7.76 59.6 6.96 59.248 6.224C58.512 4.608 59.632 2.672 61.664 3.2C62.32 3.36 62.704 3.328 63.072 3.184C63.424 3.04 63.744 2.96 64.32 2.976C65.184 3.008 65.92 3.632 65.92 4.672C65.92 5.776 65.264 6.432 64.048 6.24C62.768 6.032 62.48 6.064 62.48 6.944C62.48 8.4 62.656 8.8 63.856 8.352C64.8 7.984 65.76 8.528 65.76 9.712C65.76 9.936 66.24 10 66.24 9.584C66.24 9.328 66.32 8.848 66.464 8.416C66.736 7.616 66.688 6.96 66.4 6.224C65.76 4.56 66.816 2.672 68.784 3.2C69.408 3.36 69.792 3.328 70.144 3.184C70.48 3.04 70.8 2.96 71.296 2.976C72.16 3.008 72.88 3.632 72.864 4.672C72.848 5.776 72.176 6.464 70.976 6.24C69.808 6 69.52 6.032 69.488 6.912C69.424 8.368 69.584 8.768 70.752 8.352C71.776 7.984 72.928 8.592 72.912 9.776C72.896 10.96 72.464 11.504 71.52 11.52C70.88 11.536 70.56 11.44 70.224 11.312C69.84 11.168 69.424 11.2 69.024 11.376C68.64 11.536 68.32 11.584 67.952 11.536C67.824 11.52 67.744 11.712 67.792 12C67.84 12.336 67.84 12.8 67.776 13.152C67.648 13.904 67.952 13.904 68.464 13.776C69.2 13.6 70.24 13.488 71.648 13.168C73.024 12.848 73.776 13.984 73.776 15.056C73.776 16.544 72.544 17.296 70.176 16.896C66.912 16.336 64.464 16.416 60.752 16.896Z" fill="#F43D2D"/>
</svg>
